<?xml version="1.0" standalone="no"?>
<!DOCTYPE svg PUBLIC "-//W3C//DTD SVG 20010904//EN"
 "http://www.w3.org/TR/2001/REC-SVG-20010904/DTD/svg10.dtd">
<svg version="1.0" xmlns="http://www.w3.org/2000/svg"
 width="809.000000pt" height="809.000000pt" viewBox="0 0 809.000000 809.000000"
 preserveAspectRatio="xMidYMid meet">
<metadata>
Created by potrace 1.11, written by Peter Selinger 2001-2013
</metadata>
<g transform="translate(0.000000,809.000000) scale(0.100000,-0.100000)"
fill="#000000" stroke="none">
<path d="M3750 8079 c-617 -44 -1240 -241 -1773 -559 -298 -177 -518 -351
-788 -620 -199 -199 -322 -344 -466 -550 -837 -1196 -955 -2787 -304 -4097
572 -1150 1642 -1957 2901 -2187 264 -48 413 -60 730 -60 316 0 454 11 720 60
1347 246 2471 1150 3005 2415 148 351 241 706 291 1119 26 204 25 675 0 885
-98 820 -401 1529 -918 2152 -131 158 -403 425 -563 555 -803 646 -1809 961
-2835 887z m185 -824 c605 -79 1160 -361 1588 -805 621 -643 874 -1551 681
-2435 -204 -934 -933 -1713 -1854 -1983 -271 -79 -468 -106 -770 -106 -260 1
-409 18 -635 73 -828 204 -1522 799 -1839 1579 -306 750 -265 1580 111 2282
430 802 1232 1328 2148 1410 134 12 422 4 570 -15z"/>
<path d="M3455 7024 c-415 -31 -784 -146 -1115 -348 -373 -228 -703 -590 -895
-981 -168 -344 -245 -675 -245 -1057 0 -915 511 -1736 1335 -2144 894 -442
1983 -273 2703 420 509 490 775 1167 732 1863 -23 356 -104 651 -265 960 -359
691 -1025 1160 -1800 1268 -104 15 -364 25 -450 19z m330 -264 c314 -34 620
-131 865 -275 75 -44 76 -45 72 -81 -2 -19 -11 -38 -20 -41 -8 -4 -51 0 -96 7
-44 7 -110 13 -146 12 -90 -1 -380 -59 -467 -94 -39 -15 -79 -28 -87 -28 -20
0 -36 31 -36 68 0 38 -40 73 -112 100 -143 53 -282 34 -528 -73 -68 -29 -92
-35 -120 -30 -81 17 -154 9 -274 -28 -135 -42 -203 -53 -271 -43 -55 9 -65 27
-36 66 29 40 27 52 -19 89 -22 17 -40 35 -40 39 0 11 133 83 245 134 323 147
730 215 1070 178z m1457 -780 c582 -716 635 -1730 130 -2505 -80 -123 -184
-253 -190 -236 -3 8 2 18 11 22 26 15 28 60 9 138 l-19 73 -20 -26 c-12 -14
-29 -59 -39 -98 -18 -74 -59 -134 -87 -126 -16 6 -86 109 -87 128 0 9 14 24
31 34 31 18 37 50 9 52 -8 0 -28 5 -43 12 -62 26 -73 25 -86 -6 -7 -16 -25
-41 -39 -54 -44 -41 -135 -98 -157 -98 -11 0 -47 -24 -80 -52 -87 -76 -278
-198 -321 -205 -29 -5 -42 -15 -65 -51 -15 -24 -31 -57 -34 -72 -3 -15 -17
-38 -31 -50 -28 -28 -30 -49 -8 -115 14 -39 15 -52 4 -68 -10 -17 -10 -23 5
-33 25 -18 45 -6 45 27 0 42 54 63 135 54 33 -4 85 -11 115 -14 l55 -6 -105
-42 c-301 -118 -535 -160 -854 -150 -194 5 -347 27 -508 73 -832 233 -1434
927 -1547 1782 -7 56 -6 62 8 56 35 -14 145 -16 219 -4 146 23 306 98 419 195
65 56 59 81 -37 158 l-35 28 60 -6 c79 -8 194 -31 277 -56 78 -23 98 -44 98
-106 0 -86 181 -513 255 -601 33 -40 54 -32 85 33 18 38 22 60 20 128 -5 127
-5 127 30 127 42 0 99 31 195 103 44 34 104 79 132 100 29 22 62 56 74 76 l21
36 25 -50 c14 -28 51 -79 83 -115 57 -65 57 -66 52 -118 -4 -46 -1 -56 19 -78
13 -14 31 -23 40 -21 14 4 17 -8 22 -68 11 -131 73 -262 175 -376 46 -51 51
-59 32 -59 -13 0 -47 25 -85 61 -55 53 -71 62 -110 66 -25 3 -45 3 -45 -1 0
-14 189 -232 273 -316 82 -83 149 -131 163 -118 3 4 8 33 10 66 3 56 2 60 -27
81 -17 13 -35 36 -41 52 -6 16 -22 36 -37 44 -15 7 -34 21 -42 31 -11 14 -6
13 28 -4 39 -21 73 -21 73 -1 0 5 -38 83 -84 174 -91 178 -117 258 -98 300 6
14 17 25 25 25 7 0 35 -23 62 -51 62 -63 127 -109 155 -109 47 0 140 81 140
122 0 36 -27 83 -84 148 -73 82 -83 103 -67 133 12 21 91 87 104 87 4 0 15
-17 24 -37 10 -21 25 -39 35 -41 9 -2 44 22 78 52 38 34 83 63 118 76 31 12
70 33 86 48 37 35 116 196 116 237 0 34 -35 89 -90 140 -45 42 -62 78 -51 108
21 55 133 114 165 88 16 -13 17 -17 36 -88 13 -50 54 -103 80 -103 28 0 50 39
50 87 0 35 -6 48 -35 77 -30 31 -35 42 -35 83 0 95 113 227 219 256 61 17 69
38 42 125 -26 86 -75 161 -121 185 -27 14 -51 17 -106 14 l-72 -4 39 81 c21
45 48 92 59 105 19 21 26 23 77 17 52 -6 59 -4 84 20 l27 26 20 -45 c24 -53
39 -65 59 -44 12 11 17 46 21 132 l5 117 99 -99 c55 -54 127 -132 160 -173z"/>
<path d="M5105 5368 c-2 -7 -11 -36 -20 -65 -30 -95 -123 -199 -250 -280 -51
-32 -56 -53 -19 -82 32 -25 35 -24 160 70 136 102 191 177 201 273 7 64 -8 96
-43 96 -13 0 -26 -6 -29 -12z"/>
<path d="M4328 3942 c-19 -21 -43 -52 -53 -69 -12 -21 -42 -42 -98 -69 -93
-45 -113 -75 -96 -138 5 -20 14 -36 18 -36 5 0 11 -14 15 -30 6 -33 31 -47
102 -57 53 -7 134 5 138 20 18 62 45 116 73 148 40 44 40 68 0 87 -34 16 -35
35 -2 52 14 7 25 19 25 26 0 7 7 17 16 22 12 7 7 15 -30 45 -24 20 -51 37 -59
37 -8 0 -30 -17 -49 -38z"/>
<path d="M4907 3953 c-22 -21 -1 -65 81 -173 98 -130 116 -139 192 -100 l41
21 64 -21 c53 -18 68 -19 87 -9 30 16 38 28 38 60 0 34 -14 46 -177 145 l-138
84 -91 0 c-50 0 -94 -3 -97 -7z"/>
</g>
</svg>
